<svg width="24" height="24" viewBox="0 0 24 24" fill="none" xmlns="http://www.w3.org/2000/svg">
<path d="M13.1127 4C8.74035 4 5.20001 7.58214 5.20001 12C5.20001 16.4179 8.74035 20 13.1127 20C15.2581 20 17.2017 19.1357 18.6285 17.7357C18.8055 17.5607 18.8515 17.2893 18.7383 17.0679C18.625 16.8464 18.3807 16.7214 18.1364 16.7643C17.7894 16.825 17.4354 16.8571 17.0708 16.8571C13.6402 16.8571 10.8575 14.0429 10.8575 10.5714C10.8575 8.22143 12.132 6.175 14.019 5.09643C14.2349 4.97143 14.3447 4.72143 14.2916 4.47857C14.2385 4.23571 14.0331 4.05357 13.7853 4.03214C13.5623 4.01429 13.3392 4.00357 13.1127 4.00357V4Z" fill="currentColor"/>
</svg>
